HIERARCHY
ROOT pelvis
{
  OFFSET 0 100 0
  CHANNELS 6 Xposition Yposition Zposition Zrotation Xrotation Yrotation
  JOINT pelvis_right_femur
  {
    OFFSET -10.78128 -3.44521 -0.5502486
    CHANNELS 3 Zrotation Xrotation Yrotation
    JOINT right_femur_tibia
    {
      OFFSET -0.8047443 -44.0398 -0.1307829
      CHANNELS 3 Zrotation Xrotation Yrotation
      JOINT right_tibia_foot
      {
        OFFSET 3.006224 -47.83518 -5
        CHANNELS 3 Zrotation Xrotation Yrotation
        End Site
        {
          OFFSET 0 -5 15
        }
      }
    }
  }
  JOINT pelvis_left_femur
  {
    OFFSET 10.78128 -3.44521 -0.5502486
    CHANNELS 3 Zrotation Xrotation Yrotation
    JOINT left_femur_tibia
    {
      OFFSET 0.8047443 -44.0398 -0.1307829
      CHANNELS 3 Zrotation Xrotation Yrotation
      JOINT left_tibia_foot
      {
        OFFSET -4.370144 -48.10324 -4.275266
        CHANNELS 3 Zrotation Xrotation Yrotation
        End Site
        {
          OFFSET 0 -5 15
        }
      }
    }
  }
  JOINT pelvis_spine1
  {
    OFFSET 0 6.468898 -3.129235
    CHANNELS 3 Zrotation Xrotation Yrotation
    JOINT spine1
    {
      OFFSET 0 23.15396 4.99043
      CHANNELS 3 Zrotation Xrotation Yrotation
      JOINT spine2
      {
        OFFSET 0 20.79997 -5.064912
        CHANNELS 3 Zrotation Xrotation Yrotation
        JOINT neck
        {
          OFFSET 0 14.38658 9.616178
          CHANNELS 3 Zrotation Xrotation Yrotation
          End Site
          {
            OFFSET 0 20 0
          }
        }
      }
      JOINT right_manubrium
      {
        OFFSET -5.722621 16.35077 3.967754
        CHANNELS 3 Zrotation Xrotation Yrotation
        JOINT right_clavicle
        {
          OFFSET -13.16364 1.694482 -4.693211
          CHANNELS 3 Zrotation Xrotation Yrotation
          JOINT right_humerus
          {
            OFFSET -28.5034 -0.3100689 -2.792744
            CHANNELS 3 Zrotation Xrotation Yrotation
            JOINT right_radius
            {
              OFFSET -25.15693 0.02248979 -1.271978
              CHANNELS 3 Zrotation Xrotation Yrotation
              End Site
              {
                OFFSET -15 0 0
              }
            }
          }
        }
      }
      JOINT left_manubrium
      {
        OFFSET 5.722621 16.35077 3.967754
        CHANNELS 3 Zrotation Xrotation Yrotation
        JOINT left_clavicle
        {
          OFFSET 13.16364 1.694482 -4.693211
          CHANNELS 3 Zrotation Xrotation Yrotation
          JOINT left_humerus
          {
            OFFSET 29.39168 -1.063119 -2.237045
            CHANNELS 3 Zrotation Xrotation Yrotation
            JOINT left_radius
            {
              OFFSET 24.59957 -0.9528479 0.9047498
              CHANNELS 3 Zrotation Xrotation Yrotation
              End Site
              {
                OFFSET 15 -0 -0
              }
            }
          }
        }
      }
    }
  }
}
MOTION
Frames: 19
Frame Time: 0.0416666666667
-390.7778 118.415 102.1365 12.60288 -3.967412 76.26192 6.237207 6.917081 -4.657698 -0 18.37196 -0 -8.350822 4.30616 1.128343 0.4017425 -6.534286 -6.023021 -0 22.49305 -0 -2.902504 -7.745424 15.92849 2.846259 -3.974036 6.384775 -1.119774 17.98752 -4.690419 2.007706 22.43388 4.706243 1.80403 -19.64638 6.555403 -4.434776 -29.99735 13.57852 94.52018 4.830009 -14.55276 -0 0 19.70275 -33.50195 18.38573 19.00494 2.401345 -24.66436 -12.11714 -97.49018 20.11678 34.63093 0 0 -18.2575 -1.251109 19.59286 14.88338
-384.573 118.385 102.7564 12.55381 -4.122469 75.56498 6.236985 6.916041 -4.658237 -0 18.37201 -0 -8.351042 4.307327 1.12864 0.4013364 -6.533285 -6.023298 -0 22.49301 -0 -2.902709 -7.746242 15.92854 2.846177 -3.973808 6.384488 -1.119873 17.98729 -4.690272 2.007741 22.43419 4.706461 1.804204 -19.64643 6.55554 -4.434895 -29.9968 13.57845 94.52042 4.829947 -14.55291 -0 0 19.70169 -33.50216 18.38531 19.00499 2.401576 -24.66437 -12.11717 -97.48983 20.1173 34.62987 0 0 -18.25815 -1.250969 19.59313 14.88325
-378.3763 118.3551 103.4534 12.50288 -4.276935 74.86778 6.236862 6.91491 -4.658838 -0 18.37175 -0 -8.351182 4.308445 1.128874 0.4009499 -6.532187 -6.023482 -0 22.49331 -0 -2.902889 -7.747032 15.92853 2.846136 -3.973624 6.384212 -1.119952 17.98713 -4.690183 2.007758 22.43452 4.706645 1.804332 -19.64648 6.555643 -4.435109 -29.99631 13.5784 94.5208 4.829668 -14.55321 -0 0 19.70058 -33.50238 18.38489 19.005 2.401761 -24.66448 -12.1173 -97.48944 20.11785 34.62881 0 0 -18.25907 -1.250897 19.59344 14.8832
-372.1888 118.3251 104.2275 12.4501 -4.430793 74.17031 6.236841 6.913765 -4.659459 -0 18.3712 -0 -8.351234 4.309441 1.129034 0.4006074 -6.531067 -6.023564 -0 22.49393 -0 -2.903034 -7.747744 15.92847 2.846137 -3.973496 6.383967 -1.120006 17.98704 -4.690156 2.007757 22.43483 4.706786 1.804409 -19.64652 6.555706 -4.435398 -29.99589 13.57837 94.52129 4.829198 -14.55363 -0 0 19.6995 -33.5026 18.38451 19.00497 2.401889 -24.66468 -12.11752 -97.48904 20.1184 34.62782 0 0 -18.26019 -1.250895 19.59378 14.88323
-366.0114 118.2952 105.0785 12.39546 -4.584023 73.47254 6.236921 6.91268 -4.660059 -0 18.37041 -0 -8.3512 4.310256 1.129111 0.4003296 -6.529999 -6.023543 -0 22.4948 -0 -2.903136 -7.748334 15.92837 2.846178 -3.973429 6.383766 -1.120032 17.98703 -4.690191 2.00774 22.43512 4.706875 1.80443 -19.64655 6.555726 -4.435742 -29.99559 13.57837 94.52186 4.828576 -14.55414 -0 0 19.69852 -33.50282 18.38418 19.0049 2.401954 -24.66495 -12.11782 -97.48865 20.11891 34.62695 0 0 -18.26143 -1.250962 19.59411 14.88333
-359.845 118.2652 106.0063 12.33894 -4.736606 72.77447 6.237092 6.911726 -4.660599 -0 18.36944 -0 -8.351085 4.310843 1.129104 0.4001322 -6.529051 -6.023424 -0 22.49586 -0 -2.903189 -7.748767 15.92823 2.846256 -3.973425 6.38362 -1.120031 17.98709 -4.690283 2.007708 22.43535 4.706909 1.804396 -19.64657 6.555705 -4.436115 -29.99541 13.57839 94.52246 4.827847 -14.55471 -0 0 19.6977 -33.503 18.38392 19.0048 2.401955 -24.66527 -12.11816 -97.48831 20.11935 34.62628 0 0 -18.2627 -1.25109 19.59441 14.8835
-353.6907 118.2353 107.0107 12.28053 -4.888517 72.07606 6.23734 6.910959 -4.661047 -0 18.36836 -0 -8.350899 4.311172 1.129016 0.4000251 -6.52828 -6.023218 -0 22.49705 -0 -2.903192 -7.749023 15.92807 2.846363 -3.973482 6.383538 -1.120002 17.98721 -4.690424 2.007663 22.43552 4.706888 1.804312 -19.64657 6.555644 -4.436493 -29.99536 13.57843 94.52305 4.827064 -14.55529 -0 0 19.69708 -33.50315 18.38375 19.00468 2.401894 -24.66562 -12.11854 -97.48803 20.11969 34.62582 0 0 -18.26392 -1.251267 19.59468 14.88373
-347.5494 118.2054 108.0917 12.22024 -5.039732 71.37731 6.237646 6.910422 -4.661377 -0 18.36725 -0 -8.350656 4.311231 1.128856 0.4000118 -6.52773 -6.022943 -0 22.49826 -0 -2.903147 -7.74909 15.92789 2.846492 -3.973595 6.383523 -1.11995 17.9874 -4.690603 2.00761 22.43562 4.706814 1.804186 -19.64657 6.55555 -4.43685 -29.99544 13.57849 94.52359 4.82628 -14.55585 -0 0 19.69671 -33.50326 18.38368 19.00454 2.401777 -24.66598 -12.11891 -97.48782 20.11992 34.6256 0 0 -18.26501 -1.251482 19.59488 14.88399
-341.4221 118.1755 109.2489 12.15805 -5.190222 70.6782 6.237986 6.910142 -4.661572 -0 18.36618 -0 -8.350376 4.311027 1.128638 0.4000896 -6.527429 -6.022618 -0 22.49943 -0 -2.903058 -7.748972 15.92771 2.846633 -3.973753 6.383572 -1.119877 17.98763 -4.690806 2.007551 22.43564 4.706695 1.804027 -19.64655 6.55543 -4.437164 -29.99564 13.57857 94.52406 4.825545 -14.55635 -0 0 19.69659 -33.50331 18.3837 19.0044 2.401613 -24.66632 -12.11926 -97.48771 20.12003 34.62563 0 0 -18.2659 -1.251718 19.59502 14.88427
-335.3096 118.1456 110.4823 12.09396 -5.339958 69.97873 6.238339 6.910127 -4.661624 -0 18.36522 -0 -8.350078 4.310584 1.128377 0.4002501 -6.527387 -6.022268 -0 22.50048 -0 -2.902933 -7.748683 15.92753 2.846777 -3.973946 6.38368 -1.119791 17.98788 -4.691019 2.007491 22.43559 4.706541 1.803846 -19.64653 6.555292 -4.437416 -29.99594 13.57865 94.52442 4.824907 -14.55676 -0 0 19.69672 -33.50332 18.38382 19.00426 2.401417 -24.66661 -12.11957 -97.48768 20.12001 34.62589 0 0 -18.26655 -1.251959 19.59508 14.88455
-329.213 118.1158 111.7916 12.02798 -5.488912 69.27887 6.23868 6.910368 -4.661534 -0 18.36443 -0 -8.349782 4.309939 1.128093 0.4004795 -6.527597 -6.021915 -0 22.50134 -0 -2.902781 -7.748249 15.92738 2.846914 -3.974157 6.383838 -1.119696 17.98814 -4.691229 2.007434 22.43547 4.706362 1.803657 -19.64649 6.555147 -4.437592 -29.99631 13.57874 94.52466 4.824403 -14.55706 -0 0 19.69708 -33.50327 18.38401 19.00414 2.4012 -24.66685 -12.11981 -97.48775 20.11987 34.62636 0 0 -18.26691 -1.252189 19.59506 14.88481
-323.1331 118.086 113.1766 11.96011 -5.637052 68.57863 6.238988 6.91084 -4.661315 -0 18.36385 -0 -8.349507 4.309142 1.127805 0.4007603 -6.528035 -6.021584 -0 22.50197 -0 -2.902614 -7.747703 15.92726 2.847036 -3.974375 6.384033 -1.1196 17.98839 -4.691421 2.007384 22.4353 4.706172 1.803471 -19.64645 6.555004 -4.437682 -29.99674 13.57882 94.52475 4.82406 -14.55723 -0 0 19.69765 -33.50318 18.38427 19.00404 2.400979 -24.66702 -12.11998 -97.4879 20.11962 34.62701 0 0 -18.26698 -1.252394 19.59497 14.88503
-317.071 118.0562 114.6371 11.89036 -5.784349 67.878 6.239243 6.911503 -4.660986 -0 18.36351 -0 -8.34927 4.308251 1.127531 0.4010723 -6.528665 -6.021294 -0 22.50233 -0 -2.902442 -7.747085 15.92718 2.847135 -3.974582 6.384252 -1.119509 17.98862 -4.691584 2.007343 22.43508 4.705983 1.803302 -19.64641 6.554872 -4.437686 -29.99719 13.57889 94.52471 4.823897 -14.55726 -0 0 19.69838 -33.50305 18.38458 19.00396 2.400768 -24.6671 -12.12006 -97.48812 20.11928 34.62777 0 0 -18.26677 -1.252561 19.59481 14.88521
-311.0275 118.0264 116.1728 11.81875 -5.930774 67.17698 6.239431 6.912307 -4.660571 -0 18.36342 -0 -8.349086 4.307327 1.12729 0.4013937 -6.529437 -6.021063 -0 22.50241 -0 -2.902278 -7.746439 15.92713 2.847205 -3.974768 6.384479 -1.119428 17.98881 -4.691708 2.007314 22.43483 4.705807 1.803159 -19.64637 6.55476 -4.437605 -29.99763 13.57895 94.52454 4.823915 -14.55717 -0 0 19.69921 -33.50289 18.38491 19.00391 2.40058 -24.66711 -12.12005 -97.4884 20.11888 34.6286 0 0 -18.2663 -1.252681 19.59461 14.88533
-305.0036 117.9966 117.7836 11.74528 -6.0763 66.47557 6.239542 6.913193 -4.660103 -0 18.36359 -0 -8.348964 4.306433 1.127096 0.4017034 -6.530296 -6.020904 -0 22.50221 -0 -2.902131 -7.745808 15.92713 2.847243 -3.97492 6.3847 -1.119363 17.98894 -4.691786 2.007298 22.43458 4.705656 1.803051 -19.64633 6.554673 -4.437448 -29.99803 13.57899 94.52426 4.824108 -14.55695 -0 0 19.70008 -33.50271 18.38524 19.0039 2.400427 -24.66703 -12.11996 -97.4887 20.11845 34.62944 0 0 -18.2656 -1.252747 19.59436 14.88538
-299.0002 117.9668 119.469 11.66998 -6.220899 65.77378 6.239572 6.914101 -4.659612 -0 18.36399 -0 -8.348911 4.305626 1.126959 0.4019813 -6.531183 -6.020826 -0 22.50177 -0 -2.902011 -7.745232 15.92717 2.847248 -3.975029 6.384899 -1.119316 17.98902 -4.691815 2.007296 22.43432 4.705538 1.802984 -19.6463 6.554618 -4.437228 -29.99837 13.57902 94.52389 4.824455 -14.55663 -0 0 19.70094 -33.50254 18.38555 19.00392 2.400318 -24.66689 -12.11979 -97.48902 20.11801 34.63024 0 0 -18.26474 -1.252758 19.5941 14.88537
-293.0182 117.937 121.229 11.59286 -6.364548 65.0716 6.239522 6.91497 -4.659133 -0 18.36459 -0 -8.348926 4.304954 1.126887 0.4022107 -6.532038 -6.020828 -0 22.50111 -0 -2.901925 -7.744748 15.92724 2.84722 -3.975091 6.385064 -1.119292 17.98904 -4.691796 2.007307 22.4341 4.70546 1.80296 -19.64628 6.554596 -4.436962 -29.99862 13.57902 94.52345 4.824929 -14.55624 -0 0 19.70173 -33.50237 18.38582 19.00397 2.400258 -24.66668 -12.11957 -97.48933 20.1176 34.63094 0 0 -18.26377 -1.252714 19.59384 14.88529
-287.0585 117.9072 123.0631 11.51396 -6.507225 64.36904 6.239398 6.915745 -4.658695 -0 18.36533 -0 -8.349007 4.304457 1.126881 0.4023783 -6.532807 -6.02091 -0 22.50029 -0 -2.901876 -7.744382 15.92735 2.847164 -3.975102 6.385187 -1.119289 17.98901 -4.69173 2.007331 22.4339 4.705426 1.802979 -19.64626 6.554608 -4.43667 -29.99878 13.57901 94.52298 4.825493 -14.55579 -0 0 19.70241 -33.50221 18.38603 19.00404 2.400248 -24.66643 -12.1193 -97.48961 20.11724 34.63151 0 0 -18.26276 -1.252621 19.59359 14.88516
-281.122 117.8774 124.9712 11.43329 -6.64891 63.66609 6.239212 6.916379 -4.658327 -0 18.36617 -0 -8.349145 4.304162 1.12694 0.4024755 -6.533443 -6.021062 -0 22.49936 -0 -2.901867 -7.744156 15.92748 2.847083 -3.975065 6.385261 -1.119308 17.98891 -4.691625 2.007364 22.43376 4.705436 1.803039 -19.64625 6.554651 -4.43637 -29.99884 13.57898 94.52251 4.826108 -14.55533 -0 0 19.70292 -33.50209 18.38618 19.00414 2.400289 -24.66616 -12.11901 -97.48984 20.11696 34.6319 0 0 -18.26179 -1.252486 19.59338 14.88499
